<?xml version="1.0" encoding="UTF-8" standalone="no"?>
<svg
   width="3223.0452"
   height="745.80035"
   viewBox="0 0 248.50452 57.502998"
   version="1.1"
   id="svg15"
   sodipodi:docname="russky-standart-bank.svg"
   inkscape:version="1.4 (e7c3feb1, 2024-10-09)"
   xmlns:inkscape="http://www.inkscape.org/namespaces/inkscape"
   xmlns:sodipodi="http://sodipodi.sourceforge.net/DTD/sodipodi-0.dtd"
   xmlns="http://www.w3.org/2000/svg"
   xmlns:svg="http://www.w3.org/2000/svg">
  <defs
     id="defs15" />
  <sodipodi:namedview
     id="namedview15"
     pagecolor="#ffffff"
     bordercolor="#000000"
     borderopacity="0.25"
     inkscape:showpageshadow="2"
     inkscape:pageopacity="0.0"
     inkscape:pagecheckerboard="0"
     inkscape:deskcolor="#d1d1d1"
     inkscape:zoom="0.2483359"
     inkscape:cx="3392.5824"
     inkscape:cy="96.643296"
     inkscape:window-width="1920"
     inkscape:window-height="1027"
     inkscape:window-x="1920"
     inkscape:window-y="25"
     inkscape:window-maximized="1"
     inkscape:current-layer="svg15" />
  <path
     d="m 28.6595,1.8275001 c -14.819,0 -26.8339999,12.0539999 -26.8339999,26.9169999 0,14.873 12.0149999,26.934 26.8339999,26.934 14.824997,0 26.839997,-12.061 26.839997,-26.934 0,-10.421 -5.92,-19.4429999 -14.561,-23.9169999 -0.082,-0.075 -0.15,-0.141 -0.236,-0.219 0,0 -0.006,0.04 -0.006,0.101 a 26.47,26.47 0 0 0 -3.275,-1.387 c 0.086,-0.366 0.201,-0.908 0.248,-1.309 0.051,-0.49 -0.34,-1.003 -1.144997,-0.81 -0.557,0.124 -1.988,0.625 -3.24,1.049 -1.506,-0.261 -3.045,-0.425 -4.625,-0.425 z"
     fill-rule="evenodd"
     clip-rule="evenodd"
     fill="#5e5642"
     stroke="#dad6cc"
     stroke-width="0.353"
     stroke-linejoin="round"
     stroke-miterlimit="2.613"
     id="path2" />
  <path
     d="m 28.6595,57.3265 c 15.732997,0 28.482997,-12.798 28.482997,-28.582 0,-12.344 -7.803,-22.8639999 -18.738,-26.8589999 l 0.115,0.646 c 10.557,3.992 18.066,14.2249999 18.066,26.2139999 0,15.473 -12.504,28.018 -27.925997,28.018 -15.422,0 -27.91999995,-12.545 -27.91999995,-28.018 0,-15.468 12.49799995,-28.00999986 27.91999995,-28.00999986 1.66,0 3.293,0.144 4.877,0.42399996 l 0.965,-0.38599996 C 32.579537,0.3763397 30.622069,0.17630398 28.6595,0.17650014 12.9315,0.17650014 0.17650005,12.9655 0.17650005,28.7455 0.17550005,44.5285 12.9315,57.3265 28.6595,57.3265 Z m 99.48308,-15.481154 c 0.345,-0.029 0.862,-0.062 1.224,-0.062 0.626,0 2.723,0 2.723,1.9 0,0.818 -0.344,2.191 -2.447,2.191 -0.661,0 -1.27,-0.092 -1.5,-0.133 z m -2.143,-5.062 c 0.667,0.467 0.667,1.051 0.667,1.453 v 7.258 c 0,0.404 0,0.98 -0.667,1.453 h 3.51 c 0.874,0 4.241,-0.092 4.241,-3.24 0,-1.912 -1.374,-3.004 -3.718,-3.004 -0.477,0 -1.414,0.076 -1.891,0.105 v -2.859 h 3.034 c 0.506,0 1.075,0.023 1.523,0.506 v -1.711 c -0.17298,0.02727 -0.3479,0.04031 -0.523,0.039 z m 13.348,1.32 1.58,4.008 h -3.138 z m -1.356,-1.32 c 0.591,0.277 0.39,0.826 0.333,0.977 l -2.896,7.344 c -0.271,0.697 -0.563,1.348 -1.315,1.844 h 2.734 c -0.678,-0.484 -0.545,-1.072 -0.344,-1.586 l 0.908,-2.275 h 3.896 l 1.098,2.727 c 0.127,0.334 0.241,0.83 -0.437,1.135 h 3.115 c -0.712,-0.381 -1,-0.928 -1.236,-1.498 l -3.482,-8.666 h -2.374 z m 15.565,4.008 v -2.555 c 0,-0.477 -0.018,-0.986 -0.666,-1.453 h 2.80499 c -0.65,0.467 -0.662,0.977 -0.662,1.453 v 7.258 c 0,0.479 0.012,0.98 0.662,1.453 h -2.80499 c 0.648,-0.473 0.666,-0.975 0.666,-1.453 v -3.545 c 1.29632,-0.115373 0.3135,-0.284873 3.9156,-0.413365 1.0948,-0.03905 2.61313,-0.07432 4.7477,-0.103123 0.18888,-0.0025 -1.32198,0.0027 -0.7407,0.02324 0.49607,0.01753 -6.60768,0.263896 -13.4956,0.493295 v 3.545 c 0,0.479 0.018,0.98 0.667,1.453 h -2.804 c 0.648,-0.473 0.667,-0.975 0.667,-1.453 v -7.258 c 0,-0.477 -0.018,-0.986 -0.667,-1.453 h 2.804 c -0.649,0.467 -0.667,0.977 -0.667,1.453 v 2.555 z m 7.05699,-4.008 c -0.66,0.467 -0.66,1.051 -0.66,1.453 v 7.258 c 0,0.404 0,0.98 0.66,1.453 h -2.805 c 0.668,-0.473 0.668,-1.049 0.668,-1.453 v -7.258 c 0,-0.402 0,-0.986 -0.668,-1.453 z m 1.885,1.846 c 0.391,-0.525 0.592,-0.842 0.592,-1.135 0,-0.348 -0.275,-0.588 -0.523,-0.711 h 2.781 l -3.516,4.572 1.666,2.209 c 1.316,1.758 2.051,2.656 3.311,3.383 l -1.547,0.068 c -1.145,0.059 -1.725,-0.824 -2.447,-1.826 l -2.574,-3.512 z"
     fill-rule="evenodd"
     clip-rule="evenodd"
     fill="#5e5642"
     stroke="#dad6cc"
     stroke-width="0.353"
     stroke-linejoin="round"
     stroke-miterlimit="2.613"
     id="path3"
     sodipodi:nodetypes="ssccssssccccscssscccsscsssccsccccccccccccccccccccccccsccssccscssscsccssccscccssccsscccsccccccccc" />
  <path
     d="m 1.8255001,28.7445 c 0,-14.863 12.0149999,-26.9169999 26.8339999,-26.9169999 14.824997,0 26.839997,12.0539999 26.839997,26.9169999 0,14.873 -12.016,26.934 -26.839997,26.934 -14.82,0 -26.8339999,-12.061 -26.8339999,-26.934 z"
     fill-rule="evenodd"
     clip-rule="evenodd"
     fill="#ffffff"
     stroke="#5e5642"
     stroke-width="0.095"
     stroke-linejoin="round"
     stroke-miterlimit="2.613"
     id="path4" />
  <path
     d="m 38.519497,2.5305001 c 10.557,3.992 18.066,14.2249999 18.066,26.2139999 0,15.473 -12.504,28.018 -27.925997,28.018 -15.422,0 -27.91999995,-12.545 -27.91999995,-28.018 0,-15.468 12.49799995,-28.00999986 27.91999995,-28.00999986 1.66,0 3.293,0.144 4.877,0.42399996 l 0.965,-0.38599996 a 28.854,28.854 0 0 0 -5.842,-0.597 C 12.9315,0.17550014 0.17650005,12.9645 0.17650005,28.7445 c 0,15.784 12.75599995,28.582 28.48299995,28.582 15.732997,0 28.482997,-12.798 28.482997,-28.582 0,-12.344 -7.803,-22.8639999 -18.738,-26.8589999 z"
     fill-rule="evenodd"
     clip-rule="evenodd"
     fill="#5e5642"
     id="path5" />
  <path
     d="m 15.0755,34.0775 c 0.275,-0.34 0.851,-0.818 1.609,-1.193 1.08,-0.548 4.16,-0.905 5.866,-0.882 1.011,0.011 1.689,0.473 2.161,0.945 0.471,0.473 -0.339,0.542 -0.742,0.202 -0.408,-0.334 -0.856,-0.449 -1.327,-0.449 -0.471,0 -0.971,0.184 -1.235,0.38 -0.271,0.207 -0.339,0.484 -1.012,0.68 -0.815,0.231 -1.758,-0.507 -1.758,-0.507 0.661,1.251 1.798,1.21 2.431,1.055 0.46,-0.121 0.604,-0.334 1.281,-0.346 1.08,-0.017 1.552,0.611 1.552,0.611 -1.351,-0.069 -3.637,0.778 -4.724,1.015 -1.35,0.3 -2.631,0.34 -2.631,0.34 0.873,1.084 2.16,1.084 3.108,1.084 0.942,0 3.976,-0.225 5.798,-0.069 2.287,0.19 4.114,1.695 4.114,3.926 0,2.23 -1.545,3.447 -1.545,3.447 1.953,-0.605 2.764,-2.162 2.764,-2.162 1.041,4.024 -1.121,7.241 -3.098,8.555 -1.643,1.095 -6.574,2.226 -10.36,0.409 -4.189,-2.012 -5.775,-3.972 -5.775,-3.972 9.107,0.744 13.561,-1.788 13.561,-1.788 -8.229,0.479 -13.969,-1.608 -17.6809999,-3.239 a 24.723,24.723 0 0 1 -3.194,-7.754 v 0.006 C 11.0475,39.5135 17.0865,40.3955 17.0865,40.3955 9.7315001,36.4005 6.0715001,31.9275 3.6405001,27.4665 a 24.917,24.917 0 0 1 1.495,-7.379 l 0.017,-0.04 c 2.729,7.284 5.7289999,9.453 5.7289999,9.453 C 7.9105001,22.7255 7.9335001,17.8755 8.2045001,14.2195 A 24.987,24.987 0 0 1 12.1115,9.8555001 l 0.022,-0.026 c -1.148,6.5029999 0.23,10.7289999 0.23,10.7289999 0,-5.142 2.879,-11.2619999 5.171,-14.3799999 a 24.279,24.279 0 0 1 4.448,-1.715 h 0.005 c -2.091,2.638 -3.011,5.197 -3.011,5.197 4.293,-4.098 11.4,-6.56 12.48,-6.837 1.08,-0.265 4.189,-1.418 5.068,-1.617 0.804997,-0.193 1.194997,0.32 1.144997,0.81 -0.068,0.637 -0.34,1.695 -0.34,1.695 2.385,0.583 3.418,1.758 3.418,1.758 -0.09,-0.317 -0.045,-0.858 -0.045,-0.858 3.287,2.934 4.184,4.332 4.275,6.9919999 0.092,2.663 1.258,3.07 1.93,3.43 0.678,0.36 2.346,1.314 2.881,1.764 0.4,0.34 0.229,0.72 0,0.991 -0.225,0.268 -0.225,0.36 -0.266,0.674 -0.201,1.384 -0.816,1.943 -1.668,2.254 -0.855,0.314 -1.803,-0.179 -1.803,-0.179 -0.943,1.038 -1.121,0.36 -1.166,-0.043 -0.041,-0.407 -0.541,-0.09 -0.896,0.043 -0.361,0.135 -0.494,-0.36 -0.494,-0.36 -1.713,-0.225 -2.459,0.79 -2.459,0.79 1.486,0.202 2.234,1.216 2.297,1.623 0.07,0.415 0.742,0.135 0.742,0.135 0,0 0.062,-0.135 0.34,-0.268 0.27,-0.136 0.338,-0.069 0.27,0.268 -0.068,0.337 -0.139,0.611 -0.139,0.611 l 0.748,0.476 c -0.277,1.831 -1.08,1.752 -1.488,1.554 -2.592,-1.3 -7.216997,-1.554 -7.216997,-1.554 0.27,-0.407 0.917997,-0.928 0.917997,-0.928 -11.870997,0 -13.875997,1.446 -14.484997,2.21 -0.42,0.53 -0.058,1.352 -0.058,1.352 -1.414,0.271 -4.999,1.179 -6.373,2.443 -1.321,1.211 -1.763,4.053 -1.81,5.102 -0.011,0.218 0.202,0.212 0.294,0.086 z m 20.68,-30.6879999 c 0.133,-0.149 0,-0.271 -0.355,-0.043 -0.363,0.222 -1.949,1.179 -3.018,2.975 -0.131,0.228 -0.053,0.564 0.518,0.369 a 9.676,9.676 0 0 1 1.729,-0.415 c 0.316,-0.047 0.316,-0.269 0.094,-0.355 -0.225,-0.095 -0.277,-0.182 -0.18,-0.544 0.085,-0.361 0.718,-1.401 1.212,-1.987 z m -2.971,4.868 C 30.4455,10.1575 26.5955,14.7005 24.7805,18.9565 c -0.138,0.318 0,0.366 0.448,0.093 0.454,-0.274 1.758,-0.902 2.385,-1.084 0,0 -0.679,2.358 -0.902,3.657 -0.178,1.07 0.707,0.986 1.259,0.859 0.552,-0.124 2.838,-0.225 3.24,-0.273 0,0 -2.114,-0.499 -2.338,-1.357 -0.224,-0.854 0.379,-2.762 0.81,-4.056 0.092,-0.277 -0.046,-0.678 -0.494,-0.502 -0.454,0.179 -1.08,0.314 -1.396,0.502 0,0 1.982,-4.877 5.038,-8.3989999 l -0.046,-0.139 10.485997,2.1729999 c -0.23,1.779 -0.879,1.62 -1.172,1.534 -0.316,-0.092 -0.402,-0.225 -1.352,-0.314 -0.299,-0.028 -1.682,-0.184 -0.941,0.401 1.189,0.954 2.201,2.891 2.201,2.891 0.137,-0.631 -0.184,-1.533 -0.357,-1.848 -0.178,-0.32 0.047,-0.406 0.266,-0.363 0.229,0.043 0.355,0.13 0.77,0.363 0.402,0.222 0.672,0.182 0.766,-0.363 0.074,-0.47 0.051,-1.43 -0.043,-2.297 -0.01,-0.063 -0.113,-0.095 -0.137,-0.003 z"
     fill-rule="evenodd"
     clip-rule="evenodd"
     fill="#5e5642"
     id="path6" />
  <path
     d="m 46.271497,46.8055 c -1.059,-3.551 -3.977,-5.816 -5.598,-7.782 -0.66,-0.801 -1.637,-1.926 -1.637,-1.926 0.947,0.542 2.746,0.813 2.746,0.813 -0.494,-0.41 -1.621,-1.759 -2.068,-2.306 -1.254,-1.504 -3.425997,-3.188 -5.038997,-3.92 -3.172,-1.441 -6.476,-1.625 -6.924,-1.712 -0.454,-0.092 -1.396,0.086 -0.816,-0.819 0.587,-0.903 4.005,-3.564 4.005,-3.564 -0.718,0 -3.867,0.277 -4.815,0.406 -0.942,0.138 -1.161,-0.179 -1.212,-0.807 0,0 -1.896,1.79 -0.988,2.703 0.138,0.136 0.54,0.182 1.04,-0.043 0.489,-0.228 1.478,-0.544 1.839,-0.585 0,0 -0.811,1.261 -0.988,1.803 -0.179,0.542 -0.225,0.813 0.626,1.084 0.855,0.265 5.177,1.625 7.826,3.43 2.654,1.805 5.399997,4.11 7.429997,8.348 2.023,4.249 0.908,7.466 0.592,8.053 a 24.764,24.764 0 0 0 4.006,-3.193 z m 5.917,-8.993 c -2.602,-2.122 -7.172,-5.909 -12.744,-7.211 0,0 7.951,3.188 10.791,11.212 a 25.065,25.065 0 0 0 1.953,-4.001 z"
     fill-rule="evenodd"
     clip-rule="evenodd"
     fill="#5e5642"
     id="path7" />
  <path
     d="m 36.5775,52.7085 c 0.849997,-1.988 1.786997,-6.716 0.798997,-10.376 0,0 0.182,8.612 -5.706997,11.455 a 25.669,25.669 0 0 0 4.896,-1.073 z m 17.282997,-24.298 c -0.764,-0.31 -5.471,-1.647 -5.471,-1.647 1.576,-0.086 2.207,-1.256 2.207,-1.256 -1.482,0.4 -3.734,0.582 -5.619,0.311 0,0 4.361,1.894 8.705,6.029 v -0.041 c 0.115,-0.997 0.184,-2.018 0.184,-3.061 0,-0.128 0,-0.197 -0.006,-0.335 z"
     fill-rule="evenodd"
     clip-rule="evenodd"
     fill="#5e5642"
     id="path8" />
  <path
     d="m 221.07652,26.771171 -4.131,-9.42 h -4.074 c 0.529,0.381 1.127,1.02 1.367,1.58 l -3.459,7.846 c -0.357,0.812 -0.627,1.193 -1.482,1.988 h 4.092 c -0.518,-0.588 -0.568,-1.09 -0.357,-1.584 0,0 0.219,-0.508 0.363,-0.848 h 4.107 l 0.369,0.848 c 0.24,0.535 0.24,0.863 -0.346,1.584 h 5.119 c -0.843,-0.744 -1.189,-1.135 -1.568,-1.994 z m -6.746,-2.547 1.127,-2.543 1.115,2.543 z m -112.98999,-5.075 c 1.672,0 2.046,0.547 2.85,1.545 l 1.695,-3.896 c -0.621,0.387 -1.2,0.691 -1.948,0.691 -0.873,0 -1.31,-0.334 -2.723,-0.334 -3.598003,0 -6.022003,2.369 -6.022003,5.896 0,3.598 2.189,5.926 5.844003,5.926 2.023,0 3.458,-0.928 4.419,-2.27 l -0.828,-1.875 c -0.902,1.291 -1.862,2.156 -3.287,2.15 -1.822003,0 -2.891003,-1.781 -2.891003,-3.932 10e-4,-2.067 0.989,-3.901 2.891003,-3.901 z m 14.986,7.506 -3.494,-4.227 3.281,-3.135 c 0.988,-0.939 1.448,-1.314 2.437,-1.943 h -5.351 c 0.644,0.709 0.712,0.975 0.253,1.424 0.005,0 -3.195,3.057 -3.195,3.057 v -2.693 c 0,-0.818 0.298,-1.291 0.775,-1.787 h -4.688 c 0.488,0.496 0.782,0.969 0.782,1.787 v 7.846 c 0,0.812 -0.294,1.281 -0.782,1.781 h 4.688 c -0.477,-0.5 -0.775,-0.969 -0.775,-1.781 v -2.848 l 2.632,3.164 c 0.454,0.549 0.299,0.832 -0.225,1.465 h 5.993 c -1.05,-0.721 -1.464,-1.055 -2.331,-2.11 z m 13.974,-9.304 h -4.683 c 0.477,0.496 0.775,0.969 0.775,1.787 v 0.047 l -3.689,4.375 v -4.422 c 0,-0.818 0.293,-1.291 0.776,-1.787 h -4.683 c 0.477,0.496 0.776,0.969 0.776,1.787 v 7.846 c 0,0.812 -0.299,1.281 -0.776,1.781 h 4.683 c -0.482,-0.5 -0.776,-0.969 -0.776,-1.781 v -0.086 l 3.689,-4.381 v 4.467 c 0,0.812 -0.299,1.281 -0.775,1.781 h 4.683 c -0.477,-0.5 -0.775,-0.969 -0.775,-1.781 v -7.846 c 0,-0.819 0.299,-1.291 0.775,-1.787 z m 7.579,-0.645 c 2.045,0 3.04,-0.848 3.04,-1.869 0,-0.455 -0.288,-0.99 -0.758,-1.418 h -2.035 c 0.518,0.502 0.661,0.963 0.661,1.176 0,0.203 -0.229,0.611 -0.908,0.611 -0.684,0 -0.908,-0.408 -0.908,-0.611 0,-0.213 0.133,-0.674 0.661,-1.176 h -2.04 c -0.46,0.428 -0.758,0.963 -0.758,1.418 0,1.021 0.994,1.869 3.045,1.869 z m -56.633003,0.645 c 0.299,0.49 0.391,0.836 0.086,1.592 -0.006,0 -1.327,3.199 -2.046,4.934 l -2.115,-4.934 c -0.287,-0.641 -0.292,-1.027 0.046,-1.592 h -4.925 c 0.685,0.623 1.046,1.137 1.477,1.994 -0.006,0 3.252,7.178 3.838,8.48 -0.782,1.828 -1.454,2.549 -2.344,2.549 -1.138,0 -1.615,-0.744 -2.27,-1.967 l -1.137,2.428 c 0.632,0.662 1.729,1.592 3.338,1.592 2.643,0 3.688,-1.955 4.7,-4.324 l 3.735,-8.773 c 0.402,-0.924 0.764,-1.453 1.241,-1.979 z"
     fill-rule="evenodd"
     clip-rule="evenodd"
     fill="#ffffff"
     stroke="#5e5642"
     stroke-width="0.095"
     stroke-linejoin="round"
     stroke-miterlimit="2.613"
     id="path9" />
  <path
     d="m 71.156527,17.091171 c -0.983,-0.984 -2.488,-1.51 -4.35,-1.51 h -5.39 c 0.638,0.629 0.874,1.096 0.874,1.994 v 9.189 c 0,0.904 -0.236,1.367 -0.874,2 h 5.051 c -0.638,-0.633 -0.867,-1.096 -0.867,-2 v -1.734 h 1.206 c 1.753,0 3.27,-0.561 4.275,-1.568 0.839,-0.842 1.281,-1.982 1.281,-3.291 0,-1.223 -0.419,-2.283 -1.206,-3.08 z m -4.723,5.603 h -0.833 v -4.789 h 0.62 c 1.649,0 2.724,0.535 2.724,2.248 0,1.735 -0.799,2.541 -2.511,2.541 z m 24.214,4.289 c -1.811,0 -2.885,-1.781 -2.885,-3.932 0,-2.068 0.994,-3.902 2.885,-3.902 1.683,0 2.052,0.547 2.861,1.545 l 1.684,-3.896 c -0.615,0.387 -1.196,0.691 -1.942,0.691 -0.874,0 -1.31,-0.334 -2.724,-0.334 -3.597,0 -6.016,2.369 -6.016,5.896 0,3.598 2.19,5.926 5.838,5.926 2.023,0 3.459,-0.928 4.424,-2.27 l -0.833,-1.875 c -0.902,1.292 -1.856,2.157 -3.292,2.151 z m 105.996993,-9.632 h -4.689 c 0.482,0.496 0.781,0.969 0.781,1.787 v 2.682 h -3.385 v -2.682 c 0,-0.818 0.289,-1.291 0.777,-1.787 h -4.689 c 0.482,0.496 0.781,0.969 0.781,1.787 v 7.846 c 0,0.812 -0.299,1.281 -0.781,1.781 h 4.689 c -0.488,-0.5 -0.777,-0.969 -0.777,-1.781 v -3.025 h 3.385 v 3.025 c 0,0.812 -0.299,1.281 -0.781,1.781 h 4.689 c -0.482,-0.5 -0.781,-0.969 -0.781,-1.781 v -7.846 c 0,-0.819 0.299,-1.291 0.781,-1.787 z m -12.826,9.42 -4.143,-9.42 h -4.068 c 0.535,0.381 1.121,1.02 1.369,1.58 l -3.455,7.846 c -0.361,0.812 -0.631,1.193 -1.488,1.988 h 4.092 c -0.518,-0.588 -0.574,-1.09 -0.361,-1.584 l 0.373,-0.848 h 4.107 l 0.363,0.848 c 0.24,0.535 0.24,0.863 -0.34,1.584 h 5.113 c -0.837,-0.744 -1.187,-1.135 -1.562,-1.994 z m -6.746,-2.547 1.127,-2.543 1.109,2.543 z m -33.45199,-6.873 h -4.683 c 0.477,0.496 0.776,0.969 0.776,1.787 v 0.047 l -3.688,4.375 v -4.422 c 0,-0.818 0.298,-1.291 0.775,-1.787 h -4.688 c 0.488,0.496 0.782,0.969 0.782,1.787 v 7.846 c 0,0.812 -0.294,1.281 -0.782,1.781 h 4.688 c -0.477,-0.5 -0.775,-0.969 -0.775,-1.781 v -0.086 l 3.688,-4.381 v 4.467 c 0,0.812 -0.299,1.281 -0.776,1.781 h 4.683 c -0.477,-0.5 -0.775,-0.969 -0.775,-1.781 v -7.846 c -0.001,-0.819 0.298,-1.291 0.775,-1.787 z m 63.95399,8.595 v -6.809 c 0,-0.818 0.299,-1.291 0.775,-1.787 h -9.314 c 0.482,0.496 0.775,0.969 0.775,1.787 v 4.664 c 0,1.982 -0.355,2.824 -2.207,3.586 v 2.777 c 0.92,-0.824 2.275,-1.4 3.523,-1.4 h 4.223 c 1.5,0 2.707,0.756 3.521,1.4 v -2.865 c -0.796,-0.239 -1.296,-0.517 -1.296,-1.353 z m -3.133,0.461 c 0,0.168 -0.045,0.213 -0.166,0.213 h -2.604 c 0.379,-0.738 0.455,-1.584 0.455,-2.818 v -4.082 c 0,-0.127 0.045,-0.225 0.217,-0.225 h 2.098 z m 29.219,-9.056 -1.338,3.119 a 3.495,3.495 0 0 0 -0.955,-1.816 c -0.85,-0.848 -2.16,-1.303 -3.781,-1.303 h -4.883 c 0.477,0.496 0.775,0.969 0.775,1.787 v 7.846 c 0,0.812 -0.299,1.281 -0.775,1.781 h 4.682 c -0.482,-0.5 -0.781,-0.969 -0.781,-1.781 v -1.418 h 0.982 c 1.518,0 2.834,-0.484 3.713,-1.359 0.725,-0.738 1.115,-1.73 1.115,-2.871 0,-0.232 -0.018,-0.451 -0.053,-0.664 0.879,-0.656 1.701,-1.182 2.645,-1.182 l 1.436,0.006 v 7.488 c 0,0.812 -0.293,1.281 -0.775,1.781 h 4.682 c -0.477,-0.5 -0.775,-0.969 -0.775,-1.781 v -7.488 h 1 c 0.953,0 1.166,0.156 1.74,1.037 l 1.393,-3.182 z m -6.389,6.07 h -0.668 v -3.949 h 0.488 c 0.822,0 1.379,0.168 1.725,0.508 0.287,0.295 0.432,0.727 0.432,1.332 0,1.464 -0.615,2.109 -1.977,2.109 z m -69.02899,3.418 c -2.107,0 -3.63,-2.006 -3.63,-4.703 0,-2.352 1.2,-4.67 3.63,-4.67 1.926,0 2.586,0.762 3.32199,1.742 l 1.844,-4.203 c -0.678,0.438 -1.32,0.68 -2.11299,0.68 -0.867,0 -1.811,-0.393 -3.201,-0.393 -4.183,0 -6.987,2.756 -6.987,6.844 0,3.973 2.534,6.877 6.786,6.877 2.408,0 4.05099,-1.096 5.09799,-2.6 l -0.908,-2.006 c -0.92699,1.395 -1.95399,2.432 -3.84099,2.432 z"
     fill-rule="evenodd"
     clip-rule="evenodd"
     fill="#ffffff"
     stroke="#5e5642"
     stroke-width="0.095"
     stroke-linejoin="round"
     stroke-miterlimit="2.613"
     id="path10" />
  <path
     d="m 170.84452,19.495171 c 0.955,0 1.168,0.156 1.742,1.037 l 1.391,-3.182 h -10.4 l -1.477,3.459 c 0.941,-0.727 1.814,-1.32 2.82,-1.32 l 1.615,0.006 v 7.488 c 0,0.812 -0.293,1.281 -0.775,1.781 h 4.689 c -0.484,-0.5 -0.777,-0.969 -0.777,-1.781 v -7.488 z"
     fill-rule="evenodd"
     clip-rule="evenodd"
     fill="#ffffff"
     stroke="#5e5642"
     stroke-width="0.095"
     stroke-linejoin="round"
     stroke-miterlimit="2.613"
     id="path11" />
  <path
     d="m 66.806527,24.534171 h -1.706 v 2.23 c 0,0.871 0.213,1.303 0.356,1.5 h -3.062 c 0.138,-0.197 0.391,-0.629 0.391,-1.5 v -9.189 c 0,-0.869 -0.253,-1.291 -0.391,-1.492 h 4.413 c 3.138,0 5.062,1.568 5.062,4.088 0,2.984 -2.442,4.363 -5.063,4.363 z m -0.586,-7.136 h -1.12 v 5.793 h 1.333 c 1.534,0 3.011,-0.611 3.011,-3.037 0,-2.215 -1.604,-2.756 -3.224,-2.756 z m 16.951,1.74 -3.735,8.768 c -1.086,2.555 -2.051,4.02 -4.24,4.02 -1.316,0 -2.259,-0.715 -2.741,-1.193 l 0.586,-1.252 c 0.569,0.98 1.305,1.391 2.224,1.391 1.27,0 2.068,-1.084 2.89,-3.057 l -3.942,-8.676 c -0.258,-0.576 -0.511,-1.061 -0.798,-1.291 h 3.085 c -0.109,0.283 -0.109,0.52 0.212,1.291 l 2.58,6.02 2.494,-6.02 c 0.27,-0.629 0.339,-0.922 0.212,-1.291 h 1.874 c -0.287,0.368 -0.465,0.731 -0.701,1.29 z m 7.481,-0.485 c -2.35,0 -3.384,2.215 -3.384,4.398 0,3.178 1.885,4.422 3.384,4.422 1.477,0 2.419,-0.709 3.167,-1.678 l 0.379,0.842 c -0.925,1.234 -2.338,1.84 -3.85,1.84 -3.528,0 -5.344,-2.445 -5.344,-5.426 0,-3.223 2.121,-5.4 5.522,-5.4 1.282,0 2.051,0.346 2.724,0.346 0.414,0 0.66,-0.041 0.965,-0.18 l -0.839,1.926 c -0.603,-0.75 -1.517,-1.09 -2.724,-1.09 z m 10.688003,0 c -2.355003,0 -3.385003,2.215 -3.385003,4.398 0,3.178 1.885,4.422 3.385003,4.422 1.471,0 2.419,-0.709 3.166,-1.678 l 0.374,0.842 c -0.925,1.234 -2.333,1.84 -3.844,1.84 -3.528003,0 -5.344003,-2.445 -5.344003,-5.426 0,-3.223 2.12,-5.4 5.522003,-5.4 1.281,0 2.045,0.346 2.723,0.346 0.409,0 0.661,-0.041 0.96,-0.18 l -0.839,1.926 c -0.603,-0.75 -1.511,-1.09 -2.718,-1.09 z m 8.418,0.485 c 0,-0.75 0.195,-1.113 0.321,-1.291 h -2.775 c 0.121,0.178 0.316,0.541 0.316,1.291 v 7.846 c 0,0.744 -0.195,1.102 -0.316,1.281 h 2.775 c -0.126,-0.18 -0.321,-0.537 -0.321,-1.281 z"
     fill-rule="evenodd"
     clip-rule="evenodd"
     fill="#5e5642"
     id="path12" />
  <path
     d="m 117.17053,28.265171 c -0.287,-0.215 -0.753,-0.715 -1.23,-1.281 l -3.786,-4.594 3.413,-3.252 c 0.748,-0.721 0.995,-0.969 1.443,-1.291 h -2.85 c 0.212,0.305 0.282,0.662 -0.356,1.291 l -3.937,3.754 3.402,4.092 c 0.568,0.691 0.568,0.98 0.356,1.281 z m 9.418,0 c 0.126,-0.18 0.298,-0.537 0.298,-1.281 v -5.828 l -4.683,5.559 v 0.27 c 0,0.744 0.196,1.102 0.328,1.281 h -2.781 c 0.121,-0.18 0.321,-0.537 0.321,-1.281 v -7.846 c 0,-0.75 -0.201,-1.113 -0.321,-1.291 h 2.781 c -0.132,0.178 -0.328,0.541 -0.328,1.291 v 5.787 l 4.683,-5.557 v -0.23 c 0,-0.75 -0.172,-1.113 -0.298,-1.291 h 2.74 c -0.126,0.178 -0.299,0.541 -0.299,1.291 v 7.846 c 0,0.744 0.173,1.102 0.299,1.281 h -2.74 z m 11.291,-12.055 c -1.799,0 -2.551,-0.686 -2.551,-1.326 0,-0.34 0.178,-0.732 0.454,-0.963 h 0.937 c -0.161,0.248 -0.247,0.449 -0.247,0.768 0,0.352 0.425,1.014 1.408,1.014 0.977,0 1.391,-0.662 1.391,-1.014 0,-0.318 -0.092,-0.52 -0.252,-0.768 h 0.942 c 0.27,0.23 0.448,0.623 0.448,0.963 -10e-4,0.64 -0.731,1.326 -2.53,1.326 z m 2.034,12.055 c 0.115,-0.18 0.299,-0.537 0.299,-1.281 v -5.828 l -4.688,5.559 v 0.27 c 0,0.744 0.201,1.102 0.321,1.281 h -2.781 c 0.133,-0.18 0.322,-0.537 0.322,-1.281 v -7.846 c 0,-0.75 -0.189,-1.113 -0.322,-1.291 h 2.781 c -0.121,0.178 -0.321,0.541 -0.321,1.291 v 5.787 l 4.688,-5.557 v -0.23 c 0,-0.75 -0.184,-1.113 -0.299,-1.291 h 2.735 c -0.126,0.178 -0.304,0.541 -0.304,1.291 v 7.846 c 0,0.744 0.178,1.102 0.304,1.281 h -2.735 z m 18.329,-11.289 c -2.757,0 -4.13,2.588 -4.13,5.16 0,3.736 2.372,5.199 4.13,5.199 1.736,0 2.852,-0.824 3.72499,-1.965 l 0.449,0.986 c -1.08599,1.457 -2.74199,2.16 -4.52299,2.16 -4.131,0 -6.292,-2.883 -6.292,-6.381 0,-3.787 2.494,-6.348 6.481,-6.348 1.518,0 2.414,0.398 3.213,0.398 0.49999,0 0.78099,-0.041 1.13699,-0.195 l -0.994,2.266 c -0.71099,-0.876 -1.76399,-1.28 -3.19599,-1.28 z m 14.22899,2.588 c -0.432,-0.553 -1.057,-0.57 -1.627,-0.57 h -1.672 v 7.99 c 0,0.744 0.195,1.102 0.322,1.281 h -2.781 c 0.127,-0.18 0.322,-0.537 0.322,-1.281 v -7.99 h -1.408 c -0.781,0 -1.527,-0.098 -2.477,0.57 l 0.748,-1.717 h 9.314 z m 8.664,8.701 c 0.127,-0.18 0.236,-0.59 -0.074,-1.281 l -0.494,-1.146 h -4.752 l -0.506,1.146 c -0.303,0.691 -0.189,1.102 -0.068,1.281 h -2.08 c 0.23,-0.232 0.477,-0.537 0.816,-1.281 l 3.545,-8.064 -0.035,-0.074 c -0.211,-0.496 -0.447,-0.785 -0.695,-0.998 h 2.562 l 4.006,9.137 c 0.344,0.744 0.592,1.049 0.822,1.281 h -3.047 z m -2.936,-7.83 -1.896,4.295 h 3.77 z m 14.711,7.83 c 0.125,-0.18 0.322,-0.537 0.322,-1.281 v -3.521 h -4.379 v 3.521 c 0,0.744 0.211,1.102 0.32,1.281 h -2.781 c 0.127,-0.18 0.322,-0.537 0.322,-1.281 v -7.846 c 0,-0.75 -0.195,-1.113 -0.322,-1.291 h 2.781 c -0.109,0.178 -0.32,0.541 -0.32,1.291 v 3.178 h 4.379 v -3.178 c 0,-0.75 -0.197,-1.113 -0.322,-1.291 h 2.779 c -0.109,0.178 -0.32,0.541 -0.32,1.291 v 7.846 c 0,0.744 0.211,1.102 0.32,1.281 z m 12.44,0 h -4.223 c -0.781,0 -2.08,0.287 -3.029,0.951 v -1.506 c 1.816,-0.836 2.207,-1.949 2.207,-3.908 v -4.664 c 0,-0.75 -0.195,-1.113 -0.322,-1.291 h 7.412 c -0.127,0.178 -0.32,0.541 -0.32,1.291 v 6.809 c 0,0.744 0.311,1.377 1.299,1.707 v 1.562 c -0.944,-0.664 -2.243,-0.951 -3.024,-0.951 z m -0.414,-9.272 h -2.707 a 0.593,0.593 0 0 0 -0.602,0.588 v 4.221 c 0,1.527 -0.219,2.623 -0.875,3.32 h 3.58 c 0.34,0 0.604,-0.271 0.604,-0.611 z m 13.462,9.272 c 0.127,-0.18 0.23,-0.59 -0.068,-1.281 l -0.494,-1.146 h -4.764 l -0.5,1.146 c -0.299,0.691 -0.189,1.102 -0.068,1.281 h -2.082 c 0.232,-0.232 0.484,-0.537 0.822,-1.281 l 3.547,-8.064 -0.047,-0.074 c -0.207,-0.496 -0.438,-0.785 -0.689,-0.998 h 2.562 l 4.006,9.137 c 0.338,0.744 0.586,1.049 0.822,1.281 h -3.047 z m -2.935,-7.83 -1.891,4.295 h 3.764 z m 12.123,4.634 h -1.477 v 1.914 c 0,0.744 0.219,1.102 0.322,1.281 h -2.775 c 0.121,-0.18 0.316,-0.537 0.316,-1.281 v -7.846 c 0,-0.75 -0.195,-1.113 -0.316,-1.291 h 3.93 c 2.695,0 4.334,1.326 4.334,3.488 0,2.548 -2.086,3.735 -4.334,3.735 z m -0.494,-6.097 h -0.982 v 4.951 h 1.162 c 1.293,0 2.477,-0.531 2.477,-2.611 -10e-4,-1.891 -1.267,-2.34 -2.657,-2.34 z m 15.101,0.592 c -0.432,-0.553 -1.051,-0.57 -1.621,-0.57 h -1.492 v 7.99 c 0,0.744 0.188,1.102 0.314,1.281 h -2.775 c 0.127,-0.18 0.316,-0.537 0.316,-1.281 v -7.99 h -1.225 c -0.787,0 -1.533,-0.098 -2.477,0.57 l 0.748,-1.717 h 8.957 z"
     fill-rule="evenodd"
     clip-rule="evenodd"
     fill="#5e5642"
     id="path13" />
  <path
     d="m 246.49852,20.325171 a 1.787,1.787 0 0 0 1.785,-1.793 1.78,1.78 0 0 0 -1.785,-1.785 1.783,1.783 0 0 0 -1.793,1.785 c 0,0.496 0.201,0.943 0.523,1.268 a 1.8,1.8 0 0 0 1.27,0.525 z m 1.418,-0.369 a 2.008,2.008 0 0 1 -2.842,0 2.002,2.002 0 0 1 0,-2.842 2.015,2.015 0 0 1 2.842,0 c 0.363,0.363 0.588,0.863 0.588,1.418 0,0.559 -0.225,1.061 -0.588,1.424 z"
     fill="#5e5642"
     id="path14" />
  <path
     d="m 245.81852,17.415171 h 0.771 c 0.234,0 0.672,0.039 0.672,0.633 0,0.34 -0.174,0.525 -0.375,0.576 v 0.018 c 0.295,0.07 0.316,0.318 0.322,0.566 0.006,0.328 0,0.426 0.07,0.559 h -0.299 c -0.07,-0.109 -0.07,-0.186 -0.07,-0.496 -0.006,-0.219 0,-0.502 -0.361,-0.502 h -0.432 v 0.998 h -0.299 v -2.352 z m 0.299,1.088 h 0.461 c 0.125,0 0.367,-0.057 0.367,-0.426 0,-0.299 -0.154,-0.398 -0.402,-0.398 h -0.426 z"
     fill-rule="evenodd"
     clip-rule="evenodd"
     fill="#5e5642"
     id="path15" />
</svg>
