<?xml version="1.0" encoding="UTF-8" standalone="no"?>
<!-- Created with Inkscape (http://www.inkscape.org/) -->

<svg
   width="195.4836mm"
   height="196.11844mm"
   viewBox="0 0 195.4836 196.11844"
   version="1.1"
   id="svg1"
   inkscape:version="1.4 (e7c3feb1, 2024-10-09)"
   sodipodi:docname="logo.svg"
   xmlns:inkscape="http://www.inkscape.org/namespaces/inkscape"
   xmlns:sodipodi="http://sodipodi.sourceforge.net/DTD/sodipodi-0.dtd"
   xmlns="http://www.w3.org/2000/svg"
   xmlns:svg="http://www.w3.org/2000/svg">
  <sodipodi:namedview
     id="namedview1"
     pagecolor="#ffffff"
     bordercolor="#000000"
     borderopacity="0.25"
     inkscape:showpageshadow="2"
     inkscape:pageopacity="0.0"
     inkscape:pagecheckerboard="0"
     inkscape:deskcolor="#d1d1d1"
     inkscape:document-units="mm"
     inkscape:zoom="0.55307694"
     inkscape:cx="371.55771"
     inkscape:cy="526.14741"
     inkscape:window-width="1200"
     inkscape:window-height="1027"
     inkscape:window-x="2417"
     inkscape:window-y="91"
     inkscape:window-maximized="0"
     inkscape:current-layer="layer1"
     inkscape:clip-to-page="true" />
  <defs
     id="defs1" />
  <g
     inkscape:label="Layer 1"
     inkscape:groupmode="layer"
     id="layer1"
     transform="translate(-9.7549981,-2.6590852)">
    <path
       d="m 107.49679,8.3280623 c -50.852633,0 -92.083111,41.3643107 -92.083111,92.3679377 0,51.03794 41.230478,92.42627 92.083111,92.42627 50.87323,0 92.10371,-41.38833 92.10371,-92.42627 0,-35.760533 -20.31498,-66.720281 -49.96729,-82.073187 -0.28139,-0.257368 -0.51474,-0.483853 -0.80985,-0.751516 0,0 -0.0206,0.137263 -0.0206,0.34659 A 90.834021,90.834021 0 0 0 137.56432,13.45828 c 0.29512,-1.25596 0.68975,-3.115878 0.85103,-4.4919432 0.17501,-1.681476 -1.16674,-3.4418784 -3.92916,-2.7795827 C 132.5748,6.6122704 127.6642,8.3314939 123.36786,9.7864854 118.19989,8.890842 112.91869,8.3280623 107.49678,8.3280623 Z"
       fill-rule="evenodd"
       clip-rule="evenodd"
       fill="#5e5642"
       stroke="#dad6cc"
       stroke-width="1.21135"
       stroke-linejoin="round"
       stroke-miterlimit="2.613"
       id="path2" />
    <path
       d="m 15.413679,100.696 c 0,-51.003627 41.230478,-92.3679377 92.083111,-92.3679377 50.87323,0 92.10371,41.3643107 92.10371,92.3679377 0,51.03794 -41.23391,92.42627 -92.10371,92.42627 -50.856064,0 -92.083111,-41.38833 -92.083111,-92.42627 z"
       fill-rule="evenodd"
       clip-rule="evenodd"
       fill="#ffffff"
       stroke="#5e5642"
       stroke-width="0.326"
       stroke-linejoin="round"
       stroke-miterlimit="2.613"
       id="path4" />
    <path
       d="m 141.33221,10.740466 c 36.22723,13.698882 61.99499,48.814278 61.99499,89.955534 0,53.09689 -42.90852,96.14611 -95.83041,96.14611 -52.921878,0 -95.809811,-43.04922 -95.809811,-96.14611 0,-53.079736 42.887933,-96.1186583 95.809811,-96.1186583 5.69643,0 11.30021,0.4941477 16.73584,1.4549911 l 3.31148,-1.3245911 a 99.014916,99.014916 0 0 0 -20.04732,-2.048656 c -53.971942,0 -97.7417919,43.8865243 -97.7417919,98.0369143 0,54.16411 43.7732809,98.08152 97.7417919,98.08152 53.98911,0 97.7418,-43.91741 97.7418,-98.08152 0,-42.359468 -26.77665,-78.459729 -64.30101,-92.1689059 z"
       fill-rule="evenodd"
       clip-rule="evenodd"
       fill="#5e5642"
       id="path5"
       style="stroke-width:3.43158" />
    <path
       d="m 60.882163,118.99663 c 0.943686,-1.16674 2.920278,-2.80703 5.521418,-4.09388 3.706111,-1.8805 14.275392,-3.10558 20.129672,-3.02665 3.46933,0.0378 5.79594,1.62314 7.41565,3.24284 1.61628,1.62314 -1.16331,1.85992 -2.54623,0.69318 -1.40009,-1.14614 -2.93744,-1.54077 -4.55372,-1.54077 -1.61627,0 -3.33206,0.6314 -4.238,1.30399 -0.92996,0.71034 -1.16331,1.66089 -3.472765,2.33348 -2.79674,0.7927 -6.032724,-1.73981 -6.032724,-1.73981 2.268277,4.29291 6.169988,4.15221 8.342179,3.62032 1.57853,-0.41522 2.07268,-1.14615 4.39586,-1.18733 3.70611,-0.0583 5.32582,2.0967 5.32582,2.0967 -4.63607,-0.23678 -12.480672,2.66977 -16.210804,3.48306 -4.632638,1.02947 -9.028496,1.16673 -9.028496,1.16673 2.995772,3.71984 7.412221,3.71984 10.665362,3.71984 3.232552,0 13.643978,-0.77211 19.896318,-0.23678 7.848037,0.652 14.117537,5.81654 14.117537,13.4724 0,7.65243 -5.3018,11.82867 -5.3018,11.82867 6.70189,-2.07611 9.4849,-7.41909 9.4849,-7.41909 3.57228,13.8087 -3.84681,24.8481 -10.63105,29.3572 -5.638087,3.75759 -22.559227,7.63871 -35.5512,1.40352 C 54.235185,170.5699 48.792694,163.844 48.792694,163.844 c 31.251432,2.5531 46.535709,-6.13567 46.535709,-6.13567 -28.238505,1.64373 -47.935795,-5.51799 -60.673834,-11.1149 a 84.839044,84.839044 0 0 1 -10.960478,-26.6085 v 0.0206 c 23.365653,17.6452 44.088987,20.67186 44.088987,20.67186 C 42.54378,126.9682 29.984183,111.61873 21.642004,96.310437 a 85.504771,85.504771 0 0 1 5.130217,-25.321656 l 0.05834,-0.137263 C 36.195353,95.847173 46.490104,103.29028 46.490104,103.29028 36.294866,80.041299 36.373792,63.398118 37.303752,50.852248 A 85.744982,85.744982 0 0 1 50.710949,35.876817 l 0.07549,-0.08922 c -3.939458,22.315589 0.789264,36.817462 0.789264,36.817462 0,-17.645204 9.87953,-38.646496 17.744719,-49.346174 a 83.315421,83.315421 0 0 1 15.263691,-5.885168 h 0.0172 C 77.425828,26.426235 74.268771,35.207658 74.268771,35.207658 89.000563,21.145027 113.38882,12.696468 117.09493,11.74592 c 3.70611,-0.90937 14.37491,-4.865986 17.39127,-5.5488712 2.76242,-0.6622957 4.10074,1.0981068 3.92916,2.7795828 -0.23335,2.1859184 -1.16674,5.8165344 -1.16674,5.8165344 8.18433,2.000613 11.72916,6.032724 11.72916,6.032724 -0.30885,-1.087812 -0.15442,-2.944299 -0.15442,-2.944299 11.27961,10.068267 14.35774,14.865621 14.67002,23.993634 0.3157,9.138307 4.31693,10.534962 6.62295,11.770332 2.32662,1.23537 8.0505,4.509101 9.8864,6.053314 1.37263,1.166738 0.78583,2.47074 0,3.400699 -0.77211,0.919664 -0.77211,1.23537 -0.91281,2.312887 -0.68974,4.749312 -2.80017,6.667568 -5.72388,7.73479 -2.934,1.077517 -6.18714,-0.614253 -6.18714,-0.614253 -3.23599,3.561983 -3.84681,1.23537 -4.00123,-0.147558 -0.14069,-1.396655 -1.85649,-0.308843 -3.0747,0.147558 -1.2388,0.463263 -1.6952,-1.235371 -1.6952,-1.235371 -5.8783,-0.772106 -8.43827,2.710952 -8.43827,2.710952 5.09934,0.69318 7.66616,4.172805 7.88235,5.56946 0.24021,1.424107 2.54624,0.463264 2.54624,0.463264 0,0 0.21276,-0.463264 1.16674,-0.919665 0.92652,-0.466695 1.15987,-0.236779 0.92652,0.919665 -0.23334,1.156443 -0.47699,2.096697 -0.47699,2.096697 l 2.56683,1.633434 c -0.95055,6.28323 -3.70611,6.012135 -5.1062,5.332681 -8.89466,-4.461059 -24.76574,-5.332681 -24.76574,-5.332681 0.92653,-1.396654 3.1502,-3.184509 3.1502,-3.184509 -40.736327,0 -47.616657,4.96207 -49.706487,7.5838 -1.44127,1.818739 -0.19904,4.639501 -0.19904,4.639501 -4.85226,0.929959 -17.154483,4.045837 -21.869479,8.383358 -4.533122,4.15565 -6.049882,13.90821 -6.211166,17.50794 -0.03775,0.74808 0.693179,0.72749 1.008885,0.29511 z M 131.84731,13.688196 c 0.4564,-0.511306 0,-0.929959 -1.21821,-0.147558 -1.24567,0.761812 -6.68816,4.045837 -10.35652,10.208961 -0.44954,0.782402 -0.18187,1.935414 1.77756,1.266255 a 33.204004,33.204004 0 0 1 5.93321,-1.424107 c 1.08438,-0.161285 1.08438,-0.923096 0.32257,-1.218213 -0.77211,-0.326 -0.95055,-0.624548 -0.61769,-1.866781 0.29169,-1.238802 2.46388,-4.807649 4.15908,-6.818557 z m -10.19523,16.70495 C 113.6256,36.913155 100.414,52.50284 94.185683,67.10766 c -0.47356,1.091243 0,1.255959 1.53735,0.319137 1.55794,-0.940254 6.032717,-3.095288 8.184327,-3.719837 0,0 -2.33005,8.091675 -3.09529,12.549302 -0.61082,3.671794 2.42613,3.383541 4.32036,2.94773 1.89424,-0.425516 9.73884,-0.772106 11.11833,-0.936822 0,0 -7.25436,-1.71236 -8.02304,-4.656659 -0.76867,-2.930573 1.30057,-9.478034 2.77958,-13.918504 0.31571,-0.950548 -0.15785,-2.326613 -1.6952,-1.722655 -1.55794,0.614254 -3.70611,1.077518 -4.79049,1.722655 0,0 6.8014,-16.735833 17.28832,-28.821871 l -0.15785,-0.47699 35.98358,7.456831 c -0.78926,6.104788 -3.01636,5.559166 -4.02181,5.26405 -1.08438,-0.315706 -1.3795,-0.772107 -4.6395,-1.077518 -1.02605,-0.09608 -5.77193,-0.631411 -3.22912,1.376065 4.08015,3.273731 7.55291,9.920709 7.55291,9.920709 0.47013,-2.16533 -0.63141,-5.260618 -1.22507,-6.341567 -0.61083,-1.098107 0.16128,-1.393223 0.9128,-1.245665 0.78583,0.147558 1.21821,0.446106 2.64232,1.245665 1.37949,0.761812 2.30602,0.624548 2.62859,-1.245665 0.25394,-1.612844 0.17501,-4.907164 -0.14756,-7.882348 -0.0343,-0.216189 -0.38777,-0.326 -0.47013,-0.01029 z"
       fill-rule="evenodd"
       clip-rule="evenodd"
       fill="#5e5642"
       id="path6"
       style="stroke-width:3.43158" />
    <path
       d="m 167.93385,162.67383 c -3.63405,-12.18555 -13.64741,-19.95809 -19.21001,-26.70458 -2.26485,-2.7487 -5.6175,-6.60923 -5.6175,-6.60923 3.24971,1.85991 9.42313,2.78987 9.42313,2.78987 -1.69521,-1.40695 -5.5626,-6.03615 -7.09652,-7.91323 -4.30321,-5.1611 -11.7566,-10.93988 -17.29175,-13.4518 -10.88498,-4.94492 -22.22294,-5.57633 -23.76028,-5.87487 -1.55794,-0.31571 -4.790497,0.29511 -2.80018,-2.81047 2.01434,-3.098721 13.7435,-12.230166 13.7435,-12.230166 -2.46388,0 -13.26994,0.950549 -16.523077,1.393223 -3.23255,0.473559 -3.98407,-0.614253 -4.15908,-2.769288 0,0 -6.50628,6.142535 -3.3904,9.275571 0.47355,0.466696 1.85305,0.624548 3.56884,-0.147558 1.67805,-0.782401 5.07188,-1.866781 6.310687,-2.007476 0,0 -2.783017,4.327227 -3.390407,6.187144 -0.61425,1.85992 -0.77211,2.78988 2.14817,3.71984 2.934007,0.90937 17.765307,5.57632 26.855577,11.77033 9.10742,6.194 18.53055,14.1038 25.49666,28.64686 6.9421,14.5808 3.11588,25.6202 2.0315,27.63454 a 84.979739,84.979739 0 0 0 13.74692,-10.95705 z m 20.30468,-30.86023 c -8.92898,-7.28182 -24.61132,-20.27723 -43.73211,-24.74515 0,0 27.28453,10.93989 37.03022,38.47491 a 86.012645,86.012645 0 0 0 6.70189,-13.72976 z"
       fill-rule="evenodd"
       clip-rule="evenodd"
       fill="#5e5642"
       id="path7"
       style="stroke-width:3.43158" />
    <path
       d="m 134.66807,182.93047 c 2.91685,-6.82199 6.13224,-23.04652 2.74184,-35.60611 0,0 0.62455,29.5528 -19.58405,39.30879 a 88.085322,88.085322 0 0 0 16.80103,-3.68209 z m 59.30806,-83.380618 c -2.62173,-1.063791 -18.77419,-5.651818 -18.77419,-5.651818 5.40818,-0.295116 7.5735,-4.310069 7.5735,-4.310069 -5.0856,1.372633 -12.81353,1.997181 -19.28206,1.067222 0,0 14.96513,6.49942 29.87193,20.689013 v -0.14069 c 0.39463,-3.42129 0.63141,-6.92494 0.63141,-10.50408 0,-0.43924 0,-0.67602 -0.0206,-1.149578 z"
       fill-rule="evenodd"
       clip-rule="evenodd"
       fill="#5e5642"
       id="path8"
       style="stroke-width:3.43158" />
  </g>
</svg>
