<?xml version="1.0" encoding="UTF-8" standalone="no"?>
<!-- Created with Inkscape (http://www.inkscape.org/) -->
<svg xmlns:svg="http://www.w3.org/2000/svg" xmlns="http://www.w3.org/2000/svg" version="1.0" width="1024" height="1024" id="svg2444">
  <defs id="defs2446"/>
  <g id="layer1">
    <g id="g3257">
      <path d="M 179.92864,32.000013 L 844.07135,32.000013 C 925.76732,32.000013 991.99999,98.230361 991.99999,179.92865 L 991.99999,844.07135 C 991.99999,925.76732 925.76732,991.99998 844.07135,991.99998 L 179.92864,991.99998 C 98.230355,991.99998 32.000006,925.76732 32.000006,844.07135 L 32.000006,179.92865 C 32.000006,98.230361 98.230355,32.000013 179.92864,32.000013" id="path2438" style="fill:#4c75a3;fill-opacity:1;fill-rule:evenodd;stroke:none"/>
<path xmlns="http://www.w3.org/2000/svg" fill="#FFFFFF" d="M219.155,253.262c27.975-5.699,44.739-18.947,45.626-19.658c8.186-6.565,9.501-18.523,2.936-26.71    c-6.564-8.186-18.521-9.501-26.709-2.937c-0.173,0.14-18.053,13.856-47.472,13.876c-29.418-0.02-47.676-13.736-47.849-13.876    c-8.188-6.564-20.145-5.249-26.709,2.937c-6.565,8.187-5.25,20.145,2.936,26.71c0.899,0.721,18.355,14.314,47.114,19.879    l-40.081,41.888c-7.284,7.554-7.065,19.582,0.489,26.866c3.687,3.555,8.439,5.322,13.187,5.322c4.978,0,9.951-1.945,13.679-5.812    l37.235-39.665l40.996,39.922c7.428,7.416,19.456,7.404,26.87-0.021c7.414-7.426,7.405-19.456-0.021-26.87L219.155,253.262z"/>
 </g>
  </g>
</svg>